<svg width="81" height="28" viewBox="0 0 81 28" fill="none" xmlns="http://www.w3.org/2000/svg">
<path d="M0.372 21V13.216C0.372 8.764 2.948 6.804 6.308 6.804C8.268 6.804 9.92 7.56 10.956 9.016C11.992 7.56 13.616 6.804 15.604 6.804C18.964 6.804 21.54 8.764 21.54 13.216V21H17.34V13.216C17.34 11.368 16.444 10.724 15.184 10.724C13.952 10.724 13.056 11.368 13.056 13.216V21H8.856V13.216C8.856 11.368 7.96 10.724 6.728 10.724C5.468 10.724 4.572 11.368 4.572 13.216V21H0.372ZM31.0744 27.272C27.7984 27.272 25.0824 25.76 24.3824 22.344H28.5824C29.0024 23.268 29.7304 23.632 31.0744 23.632C32.9224 23.632 33.7344 22.764 33.7344 20.664V19.292C32.9504 20.496 31.7464 21.14 30.2904 21.14C27.3784 21.14 24.2704 19.18 24.2704 14.112V7.168H28.4704V14.112C28.4704 16.296 29.5344 17.22 31.1024 17.22C32.6144 17.22 33.7344 16.24 33.7344 14.112V7.168H37.9344V20.524C37.9344 25.34 34.8544 27.272 31.0744 27.272ZM47.2462 21.364C44.1662 21.364 40.5542 19.068 40.5542 14.252C40.5542 9.8 43.6342 6.804 48.0302 6.804C52.3702 6.804 55.3942 9.688 55.3942 14.224V21H51.5302V18.704C50.8022 20.412 49.2342 21.364 47.2462 21.364ZM48.0022 17.444C49.9062 17.444 51.1942 16.072 51.1942 14.084C51.1942 12.096 49.9062 10.724 48.0022 10.724C46.0982 10.724 44.8102 12.096 44.8102 14.084C44.8102 16.072 46.0982 17.444 48.0022 17.444ZM58.1493 26.908V14.224C58.1493 9.576 61.2853 6.804 65.5133 6.804C69.9093 6.804 72.9893 9.8 72.9893 14.252C72.9893 19.068 69.4053 21.364 66.2693 21.364C64.6173 21.364 63.2173 20.72 62.3493 19.488V26.908H58.1493ZM65.5413 17.444C67.4453 17.444 68.7333 16.072 68.7333 14.084C68.7333 12.096 67.4453 10.724 65.5413 10.724C63.6373 10.724 62.3493 12.096 62.3493 14.084C62.3493 16.072 63.6373 17.444 65.5413 17.444ZM77.7325 5.908C76.1925 5.908 75.0445 4.76 75.0445 3.22C75.0445 1.68 76.1925 0.532 77.7325 0.532C79.2725 0.532 80.4205 1.68 80.4205 3.22C80.4205 4.76 79.2725 5.908 77.7325 5.908ZM75.6325 21V7.168H79.8325V21H75.6325Z" fill="black"/>
</svg>
