<svg width="464" height="465" viewBox="0 0 464 465" fill="none" xmlns="http://www.w3.org/2000/svg">
<path d="M225.989 427.468L232.135 456.083L228.388 455.768L223.724 431.492L214.995 454.643L211.208 454.325L206.505 430.045L197.855 453.203L194.109 452.888L204.903 425.696L208.73 426.018L213.537 449.061L222.202 427.15L225.989 427.468Z" fill="#80A8BD"/>
<path d="M172.477 442.303L180.782 431.307L171.198 428.597L172.477 442.303ZM191.068 423.45L172.788 447.379L169.593 446.475L166.511 416.506L170.168 417.54L170.886 425.142L182.857 428.527L187.45 422.426L191.068 423.45Z" fill="#80A8BD"/>
<path d="M158.824 413.473L147.09 438.896L137.938 434.671C135.516 433.554 133.876 432.018 133.015 430.064C132.155 428.111 132.216 426.068 133.2 423.938C133.915 422.388 134.964 421.228 136.348 420.457C137.697 419.699 139.227 419.406 140.938 419.58L139.067 404.354L142.953 406.148L144.587 420.647L150.289 423.279L155.519 411.948L158.824 413.473ZM148.914 426.257L143.43 423.726C141.857 422.999 140.472 422.786 139.276 423.086C138.069 423.41 137.17 424.213 136.577 425.497C135.985 426.78 135.957 427.986 136.493 429.115C137.03 430.243 138.085 431.171 139.659 431.897L145.143 434.428L148.914 426.257Z" fill="#80A8BD"/>
<path d="M121.549 392.94C124.852 395.196 126.822 398.174 127.461 401.872C128.078 405.555 127.213 409.114 124.867 412.549C122.521 415.984 119.52 418.084 115.865 418.849C112.188 419.599 108.698 418.846 105.395 416.59C102.114 414.349 100.165 411.387 99.5479 407.704C98.9091 404.006 99.7629 400.439 102.109 397.004C104.456 393.569 107.467 391.476 111.144 390.726C114.8 389.961 118.268 390.699 121.549 392.94ZM114.983 415.389C117.72 414.739 119.99 413.093 121.795 410.451C123.6 407.808 124.307 405.094 123.917 402.309C123.527 399.523 122.132 397.311 119.732 395.671C117.309 394.017 114.73 393.514 111.993 394.164C109.257 394.814 106.986 396.46 105.181 399.102C103.376 401.745 102.669 404.459 103.059 407.244C103.434 410.052 104.833 412.282 107.255 413.937C109.655 415.576 112.231 416.06 114.983 415.389Z" fill="#80A8BD"/>
<path d="M103.284 379.624L83.8208 399.753L77.8396 393.97C74.9257 391.152 73.3817 387.934 73.2077 384.316C73.0146 380.68 74.438 377.289 77.478 374.146C80.518 371.002 83.8584 369.465 87.4994 369.536C91.1212 369.588 94.389 371.023 97.3029 373.84L103.284 379.624ZM98.4161 379.479L95.1092 376.282C92.9813 374.224 90.587 373.152 87.9265 373.065C85.2467 372.959 82.6649 374.19 80.181 376.759C78.4942 378.504 77.4404 380.322 77.0196 382.215C76.5611 384.109 76.6373 385.833 77.248 387.388C77.8403 388.962 78.8169 390.408 80.1781 391.724L83.485 394.921L98.4161 379.479Z" fill="#80A8BD"/>
<path d="M74.2203 347.206C76.5862 350.431 77.4562 353.894 76.8302 357.594C76.1885 361.273 74.1904 364.342 70.8361 366.803C67.4818 369.263 63.9539 370.247 60.2522 369.755C56.5348 369.24 53.4931 367.371 51.1272 364.145C48.7771 360.942 47.9229 357.5 48.5646 353.822C49.1906 350.121 51.1807 347.041 54.535 344.58C57.8893 342.12 61.4252 341.147 65.1426 341.661C68.8443 342.154 71.8702 344.002 74.2203 347.206ZM60.57 366.198C63.367 366.494 66.0556 365.696 68.6358 363.803C71.2161 361.91 72.7848 359.586 73.3421 356.829C73.8994 354.072 73.3184 351.522 71.5992 349.178C69.8642 346.813 67.5982 345.482 64.8012 345.185C62.0042 344.889 59.3156 345.687 56.7353 347.58C54.1551 349.473 52.5863 351.798 52.0291 354.554C51.4503 357.327 52.0284 359.896 53.7634 362.261C55.4826 364.605 57.7515 365.917 60.57 366.198Z" fill="#80A8BD"/>
<path d="M61.2638 328.754L36.0044 340.835L34.1059 336.866L50.5289 318.546L25.9595 319.834L24.061 315.864L49.3203 303.783L50.8737 307.03L31.8209 316.143L54.6362 314.897L55.9479 317.639L40.6749 334.655L59.7277 325.542L61.2638 328.754Z" fill="#80A8BD"/>
<path d="M29.2533 268.617L26.2869 269.065L24.5257 257.397L27.4921 256.949L29.2533 268.617Z" fill="#80A8BD"/>
<path d="M37.2081 210.259L12.6235 207.317L11.5636 216.174L8.34656 215.789L10.8941 194.501L14.1111 194.886L13.056 203.703L37.6406 206.645L37.2081 210.259Z" fill="#80A8BD"/>
<path d="M40.3509 189.939L13.2815 182.78L17.7916 165.726L20.9239 166.554L17.3445 180.089L25.3106 182.196L28.2151 171.213L31.3861 172.052L28.4816 183.034L38.1105 185.581L41.8025 171.621L44.9735 172.459L40.3509 189.939Z" fill="#80A8BD"/>
<path d="M53.0737 152.611C51.5541 156.08 49.1288 158.525 45.7979 159.948C42.4425 161.361 38.6764 161.152 34.4997 159.322C30.323 157.492 27.6285 154.87 26.4164 151.457C25.1905 148.009 25.332 144.562 26.8409 141.118C28.0608 138.334 29.8262 136.298 32.1371 135.01C34.4343 133.688 36.9463 133.303 39.6731 133.858L38.9612 137.476C36.923 137.078 35.102 137.314 33.4983 138.183C31.9052 139.028 30.67 140.452 29.7925 142.455C28.6154 145.142 28.5545 147.706 29.6099 150.149C30.6759 152.566 32.8088 154.476 36.0086 155.878C39.2083 157.28 42.0581 157.553 44.5582 156.698C47.0445 155.807 48.8762 154.019 50.0533 151.332C50.9201 149.353 51.1432 147.515 50.7227 145.817C50.3128 144.094 49.318 142.61 47.7383 141.365L49.8951 138.336C52.0487 140.066 53.4165 142.193 53.9985 144.719C54.5805 147.245 54.2722 149.876 53.0737 152.611Z" fill="#80A8BD"/>
<path d="M48.4596 103.237L50.4537 100.192L73.8783 115.531L71.8842 118.576L60.9081 111.389L52.9537 123.536L63.9298 130.724L61.9357 133.769L38.5111 118.43L40.5052 115.385L50.2097 121.739L58.1641 109.592L48.4596 103.237Z" fill="#80A8BD"/>
<path d="M70.048 84.1392L76.1386 96.4992L82.8663 89.1549L70.048 84.1392ZM78.5361 109.219L65.3738 82.1357L67.6164 79.6876L95.7743 90.4013L93.2075 93.2033L86.093 90.4291L77.6901 99.6021L81.0759 106.447L78.5361 109.219Z" fill="#80A8BD"/>
<path d="M102.012 84.927L84.4106 63.1511L98.3472 51.8862L100.384 54.406L89.2782 63.3827L94.6593 70.0399L103.743 62.6976L105.805 65.2485L96.7211 72.5908L104.843 82.6389L102.012 84.927Z" fill="#80A8BD"/>
<path d="M134.49 62.2563C131.019 64.2453 127.481 64.7211 123.874 63.6838C120.291 62.6333 117.465 60.3033 115.396 56.6941C113.328 53.0848 112.746 49.4687 113.651 45.8457C114.579 42.2095 116.778 39.3969 120.249 37.4079C123.696 35.4322 127.211 34.9697 130.795 36.0202C134.401 37.0575 137.239 39.3808 139.308 42.9901C141.376 46.5993 141.946 50.2221 141.018 53.8583C140.113 57.4813 137.937 60.2806 134.49 62.2563ZM117.15 46.5607C116.541 49.3068 117.033 52.068 118.624 54.8443C120.215 57.6207 122.349 59.4405 125.026 60.3037C127.703 61.1668 130.302 60.8758 132.824 59.4304C135.369 57.9719 136.946 55.8695 137.554 53.1235C138.163 50.3774 137.671 47.6162 136.08 44.8398C134.489 42.0635 132.355 40.2437 129.678 39.3805C126.988 38.4942 124.37 38.7803 121.825 40.2389C119.303 41.6842 117.745 43.7915 117.15 46.5607Z" fill="#80A8BD"/>
<path d="M154.415 51.6038L144.851 25.288L148.648 23.9079L169.529 40.0246L161.919 19.0847L165.264 17.8687L174.829 44.1845L171.032 45.5645L150.178 29.523L157.761 50.3877L154.415 51.6038Z" fill="#80A8BD"/>
<path d="M196.938 39.4822C193.265 40.148 189.906 39.483 186.861 37.4873C183.843 35.4868 181.929 32.2562 181.121 27.7955C180.574 24.778 180.746 22.0638 181.637 19.653C182.528 17.2421 183.867 15.3598 185.655 14.0061C187.463 12.6213 189.548 11.715 191.91 11.287C194.98 10.7306 197.707 11.0494 200.092 12.2433C202.502 13.4325 204.223 15.3022 205.255 17.8525L201.848 19.2423C201.102 17.372 199.895 16.0189 198.226 15.1831C196.578 14.3164 194.666 14.0804 192.488 14.4751C189.628 14.9934 187.481 16.3851 186.049 18.6501C184.612 20.889 184.202 23.7139 184.821 27.125C185.439 30.5361 186.8 33.0401 188.906 34.637C191.037 36.2291 193.533 36.766 196.393 36.2477C198.938 35.7864 200.849 34.6677 202.126 32.8915C203.399 31.089 203.84 28.9629 203.45 26.5132L193.847 28.2536L193.283 25.1442L206.271 22.7904L208.846 36.9989L205.58 37.591L204.809 33.3402C204.432 34.845 203.519 36.1623 202.07 37.292C200.617 38.3955 198.906 39.1256 196.938 39.4822Z" fill="#80A8BD"/>
<path d="M247.316 26.5137L247.636 23.5309L259.369 24.7919L259.048 27.7748L247.316 26.5137Z" fill="#80A8BD"/>
<path d="M298.852 47.8499L295.477 46.4881L305.953 20.5216L309.328 21.8835L304.584 33.6426L320.679 26.4629L325.168 28.2737L310.992 34.5455L315.768 54.6742L311.687 53.028L307.66 35.9617L302.773 38.1311L298.852 47.8499Z" fill="#80A8BD"/>
<path d="M333.712 65.1718C330.303 63.08 328.189 60.2029 327.37 56.5406C326.573 52.8922 327.263 49.2951 329.438 45.7493C331.614 42.2034 334.508 39.959 338.121 39.0159C341.757 38.0868 345.28 38.6682 348.689 40.7599C352.076 42.8378 354.168 45.7009 354.964 49.3493C355.783 53.0116 355.105 56.6157 352.929 60.1615C350.754 63.7074 347.848 65.9449 344.212 66.8739C340.599 67.817 337.099 67.2496 333.712 65.1718ZM339.171 42.429C336.47 43.2118 334.282 44.967 332.609 47.6946C330.936 50.4222 330.362 53.1675 330.888 55.9305C331.414 58.6935 332.916 60.8351 335.394 62.3551C337.894 63.889 340.495 64.2646 343.196 63.4818C345.898 62.699 348.085 60.9438 349.759 58.2162C351.432 55.4886 352.006 52.7433 351.48 49.9803C350.967 47.1945 349.461 45.0347 346.961 43.5007C344.483 41.9807 341.887 41.6234 339.171 42.429Z" fill="#80A8BD"/>
<path d="M352.615 77.5495L371.122 56.538L374.154 59.2083L370.023 85.2604L384.749 68.5412L387.421 70.8943L368.914 91.9058L365.882 89.2355L369.96 63.2434L355.286 79.9026L352.615 77.5495Z" fill="#80A8BD"/>
<path d="M383.642 109.053C381.296 106.149 380.269 102.882 380.56 99.2533C380.868 95.6453 382.786 92.4171 386.313 89.5689C388.698 87.6421 391.163 86.4917 393.706 86.1176C396.249 85.7435 398.543 86.0161 400.587 86.9354C402.67 87.8586 404.465 89.2538 405.973 91.121C407.933 93.5483 408.961 96.0944 409.057 98.7593C409.169 101.445 408.354 103.852 406.61 105.98L403.757 103.656C405.041 102.105 405.649 100.397 405.582 98.5317C405.553 96.6703 404.843 94.8786 403.452 93.1567C401.626 90.8954 399.376 89.6793 396.701 89.5084C394.047 89.3207 391.372 90.316 388.675 92.494C385.978 94.6721 384.434 97.0677 384.042 99.6808C383.667 102.315 384.392 104.762 386.218 107.023C387.844 109.036 389.742 110.177 391.913 110.446C394.105 110.698 396.182 110.066 398.145 108.549L392.013 100.956L394.471 98.9704L402.765 109.24L391.531 118.312L389.445 115.729L392.805 113.015C391.304 113.405 389.71 113.236 388.024 112.506C386.359 111.76 384.898 110.609 383.642 109.053Z" fill="#80A8BD"/>
<path d="M396.877 126.584L421.176 112.672L426.463 121.905C427.814 124.266 428.246 126.523 427.759 128.676C427.294 130.817 425.997 132.496 423.868 133.715C421.739 134.934 419.623 135.209 417.518 134.539C415.437 133.857 413.721 132.335 412.37 129.974L408.891 123.9L398.686 129.743L396.877 126.584ZM411.738 122.27L415.156 128.241C415.978 129.675 416.991 130.586 418.195 130.972C419.413 131.381 420.681 131.208 422 130.452C423.319 129.697 424.11 128.691 424.374 127.434C424.674 126.187 424.413 124.846 423.592 123.411L420.173 117.44L411.738 122.27Z" fill="#80A8BD"/>
<path d="M442.995 158.323L444.297 161.722L418.148 171.733L416.846 168.334L429.099 163.643L423.908 150.083L411.655 154.773L410.354 151.374L436.503 141.363L437.804 144.763L426.971 148.91L432.162 162.47L442.995 158.323Z" fill="#80A8BD"/>
<path d="M423.256 193.985C422.486 190.06 423.17 186.556 425.31 183.473C427.455 180.416 430.568 178.487 434.65 177.686C438.732 176.884 442.344 177.494 445.485 179.513C448.631 181.559 450.589 184.544 451.36 188.469C452.125 192.368 451.435 195.846 449.291 198.903C447.151 201.986 444.04 203.928 439.958 204.73C435.876 205.531 432.262 204.909 429.115 202.863C425.974 200.843 424.021 197.884 423.256 193.985ZM443.685 182.597C441.28 181.14 438.507 180.72 435.367 181.336C432.226 181.952 429.818 183.39 428.142 185.648C426.465 187.907 425.907 190.462 426.467 193.314C427.032 196.193 428.517 198.36 430.923 199.818C433.329 201.275 436.101 201.696 439.242 201.079C442.382 200.463 444.79 199.026 446.466 196.767C448.169 194.503 448.738 191.932 448.173 189.054C447.613 186.202 446.117 184.05 443.685 182.597Z" fill="#80A8BD"/>
<path d="M426.853 216.33L454.839 215.435L455.179 226.07C455.266 228.788 454.589 230.984 453.149 232.658C451.735 234.331 449.802 235.206 447.349 235.284C444.897 235.363 442.899 234.613 441.355 233.035C439.837 231.456 439.034 229.307 438.947 226.588L438.724 219.592L426.97 219.968L426.853 216.33ZM442.002 219.487L442.222 226.364C442.275 228.016 442.742 229.295 443.625 230.201C444.509 231.133 445.71 231.575 447.229 231.526C448.749 231.478 449.919 230.96 450.742 229.973C451.591 229.012 451.99 227.706 451.937 226.053L451.717 219.177L442.002 219.487Z" fill="#80A8BD"/>
<path d="M432.919 274.268L435.834 274.98L433.035 286.443L430.121 285.732L432.919 274.268Z" fill="#80A8BD"/>
<path d="M406.451 319.437L431.338 332.268L429.67 335.503L404.783 322.672L406.451 319.437Z" fill="#80A8BD"/>
<path d="M399.786 332.204L422.965 347.911L420.699 351.255L394.334 350.446L412.778 362.944L410.781 365.891L387.602 350.185L389.868 346.84L416.167 347.604L397.789 335.151L399.786 332.204Z" fill="#80A8BD"/>
<path d="M376.136 363.507L384.712 371.495L403.331 375.391L400.523 378.406L386.004 375.214L390.19 389.499L387.382 392.514L382.203 374.188L373.627 366.2L376.136 363.507Z" fill="#80A8BD"/>
<path d="M361.152 378.489L378.735 400.279L365.007 411.357L362.972 408.835L373.868 400.044L368.693 393.631L359.852 400.765L357.793 398.212L366.633 391.078L360.379 383.327L349.141 392.395L347.081 389.842L361.152 378.489Z" fill="#80A8BD"/>
<path d="M328.655 401.132C332.127 399.146 335.666 398.673 339.272 399.714C342.854 400.767 345.679 403.099 347.744 406.71C349.81 410.321 350.388 413.938 349.48 417.56C348.549 421.196 346.347 424.006 342.875 425.993C339.426 427.965 335.911 428.425 332.328 427.371C328.722 426.331 325.887 424.005 323.821 420.394C321.756 416.783 321.189 413.16 322.12 409.525C323.028 405.903 325.206 403.105 328.655 401.132ZM345.982 416.842C346.593 414.097 346.104 411.335 344.515 408.558C342.926 405.78 340.794 403.958 338.117 403.093C335.441 402.227 332.841 402.516 330.318 403.96C327.772 405.416 326.194 407.517 325.583 410.263C324.972 413.008 325.461 415.77 327.05 418.547C328.639 421.325 330.772 423.147 333.448 424.012C336.137 424.901 338.755 424.617 341.301 423.16C343.824 421.717 345.385 419.611 345.982 416.842Z" fill="#80A8BD"/>
<path d="M284.844 430.394L285.53 433.314L274.043 436.013L273.357 433.092L284.844 430.394Z" fill="#80A8BD"/>
</svg>
